<?xml version="1.0" encoding="UTF-8" standalone="no"?>
<svg width="1440px" height="350px" viewBox="0 0 1440 350" version="1.1" xmlns="http://www.w3.org/2000/svg" xmlns:xlink="http://www.w3.org/1999/xlink">
    <!-- Generator: Sketch 3.6.1 (26313) - http://www.bohemiancoding.com/sketch -->
    <title>Group 6</title>
    <desc>Created with Sketch.</desc>
    <defs>
        <linearGradient x1="50%" y1="96.7609159%" x2="50%" y2="15.8241439%" id="linearGradient-1">
            <stop stop-color="#009DF2" stop-opacity="0.0873245018" offset="0%"></stop>
            <stop stop-color="#009CEE" stop-opacity="0.37035779" offset="100%"></stop>
        </linearGradient>
        <filter x="-50%" y="-50%" width="200%" height="200%" filterUnits="objectBoundingBox" id="filter-2">
            <feOffset dx="0" dy="5" in="SourceAlpha" result="shadowOffsetOuter1"></feOffset>
            <feGaussianBlur stdDeviation="4.5" in="shadowOffsetOuter1" result="shadowBlurOuter1"></feGaussianBlur>
            <feColorMatrix values="0 0 0 0 0.531940499   0 0 0 0 0.837196695   0 0 0 0 1  0 0 0 0.7 0" in="shadowBlurOuter1" type="matrix" result="shadowMatrixOuter1"></feColorMatrix>
            <feMerge>
                <feMergeNode in="shadowMatrixOuter1"></feMergeNode>
                <feMergeNode in="SourceGraphic"></feMergeNode>
            </feMerge>
        </filter>
    </defs>
    <g id="Page-1" stroke="none" stroke-width="1" fill="none" fill-rule="evenodd" opacity="0.177880131">
        <g id="1a.-Homepage" transform="translate(0.000000, -2470.000000)">
            <g id="Customer-service-Copy" transform="translate(0.000000, 2282.000000)">
                <g id="Group-6" transform="translate(-2.000000, 192.000000)">
                    <path d="M0,315.289409 C0,315.289409 55.082483,302.531679 120.100209,288.206708 C185.117935,273.881738 192.374018,245.393988 234.481361,238.053559 C276.588703,230.713129 279.485405,265.090189 356.011334,247.081126 C432.537264,229.072062 410.291589,189.663704 460.384135,184.89122 C510.476681,180.118736 540.667986,223.900604 587.633166,225.01374 C634.598347,226.126875 771.272973,60.0614242 804.957354,45.4654634 C838.641736,30.8695026 896.411497,100.513631 943.6445,98.6278022 C990.877504,96.7419736 1034.06199,1.00817296 1108.06741,4.33988056 C1182.07282,7.67158817 1182.45846,23.1508476 1249.61408,22.3950148 C1316.7697,21.6391821 1349.29287,5.47177092 1375.43335,1.33069158 C1401.57382,-2.81038777 1425.4751,22.3950145 1425.4751,22.3950145 L1452.64062,63.5205973 L1452.64062,370.562752 L0,370.562748 L0,315.289409 Z" id="Path-34" fill="url(#linearGradient-1)" opacity="0.42735541"></path>
                    <path d="M0,315.289409 C0,315.289409 55.082483,302.531679 120.100209,288.206708 C185.117935,273.881738 192.374018,245.393988 234.481361,238.053559 C276.588703,230.713129 279.485405,265.090189 356.011334,247.081126 C432.537264,229.072062 410.291589,189.663704 460.384135,184.89122 C510.476681,180.118736 540.667986,223.900604 587.633166,225.01374 C634.598347,226.126875 771.272973,60.0614242 804.957354,45.4654634 C838.641736,30.8695026 896.411497,100.513631 943.6445,98.6278022 C990.877504,96.7419736 1034.06199,1.00817296 1108.06741,4.33988056 C1182.07282,7.67158817 1182.45846,23.1508476 1249.61408,22.3950148 C1316.7697,21.6391821 1349.29287,5.47177092 1375.43335,1.33069158 C1401.57382,-2.81038777 1425.4751,22.3950145 1425.4751,22.3950145 L1452.64062,63.5205973" id="Path-34-Copy" stroke="#60C1F7" stroke-width="2" filter="url(#filter-2)"></path>
                    <rect id="merker" stroke="#15ACFF" stroke-width="2" fill="#FFFFFF" x="805" y="37" width="14" height="14" rx="100"></rect>
                    <rect id="merker" stroke="#15ACFF" stroke-width="2" fill="#FFFFFF" x="355" y="239" width="14" height="14" rx="100"></rect>
                </g>
            </g>
        </g>
    </g>
</svg>