<?xml version="1.0" encoding="UTF-8" standalone="no"?>
<svg width="480px" height="167px" viewBox="0 0 480 167" version="1.1" xmlns="http://www.w3.org/2000/svg" xmlns:xlink="http://www.w3.org/1999/xlink">
    <!-- Generator: Sketch 3.6.1 (26313) - http://www.bohemiancoding.com/sketch -->
    <title>tm3-social-icons</title>
    <desc>Created with Sketch.</desc>
    <defs></defs>
    <g id="Page-1" stroke="none" stroke-width="1" fill="none" fill-rule="evenodd">
        <g id="tm3-social-icons">
            <g id="Page-1">
                <g id="social-icons-all">
                    <g id="social-blue" fill="#16B9FF" opacity="0.799498601">
                        <path d="M84.0019755,1 C75.7167128,1 69,7.71671276 69,16.0019755 C69,24.2832872 75.7167128,31 84.0019755,31 C92.2832872,31 99,24.2832872 99,16.0019755 C99,7.71671276 92.2832872,1 84.0019755,1 L84.0019755,1 L84.0019755,1 Z M89.7032793,12.8214145 C89.7072303,12.9557487 89.7111814,13.090083 89.7111814,13.2244172 C89.7111814,17.337416 86.6570525,22.0825761 81.0742789,22.0825761 C79.3595417,22.0825761 77.7633347,21.5649941 76.4199921,20.6839194 C76.6570525,20.7115765 76.898064,20.7273805 77.1430265,20.7273805 C78.5653892,20.7273805 79.8771237,20.2295535 80.9162386,19.395891 C79.5847491,19.3682339 78.466614,18.4713552 78.0794153,17.2346898 C78.2651126,17.2702489 78.454761,17.290004 78.6483603,17.290004 C78.9288819,17.290004 79.2291584,17.2504939 79.4820229,17.1793757 C78.0912683,16.8949032 77.0758593,15.6345318 77.0758593,14.1252469 L77.0758593,14.0896879 C77.4709601,14.3188463 77.925326,14.4610826 78.4231529,14.4768866 C77.6052944,13.9197945 77.0561043,12.9636507 77.0561043,11.8850257 C77.0561043,11.3160806 77.1983406,10.7787436 77.4591071,10.3204267 C78.9565389,12.2050573 81.1888582,13.4417226 83.713552,13.5721059 C83.6582379,13.3429475 83.6325563,13.105887 83.6325563,12.8648755 C83.6325563,11.1461873 84.9905176,9.75148163 86.6661399,9.75148163 C87.5393125,9.75148163 88.3287238,10.1268273 88.8818649,10.7313315 C89.5732912,10.5930462 90.2212564,10.3362307 90.8099565,9.97668906 C90.5847491,10.7036744 90.1023311,11.3160806 89.4741209,11.6993283 C90.0904781,11.6242592 90.6752272,11.4583169 91.2165152,11.2094034 C90.8135124,11.8336626 90.2959305,12.3828526 89.7032793,12.8214145 L89.7032793,12.8214145 L89.7032793,12.8214145 Z" id="Twitter"></path>
                        <path d="M171.001976,1 C162.716713,1 156,7.71671276 156,16.0019755 C156,24.2832872 162.716713,31 171.001976,31 C179.283287,31 186,24.2832872 186,16.0019755 C186,7.71671276 179.283287,1 171.001976,1 L171.001976,1 L171.001976,1 Z M164.47096,13.5918609 L167.236665,13.5918609 L167.236665,22.6791782 L164.47096,22.6791782 L164.47096,13.5918609 L164.47096,13.5918609 Z M165.691821,12.8016594 L165.672066,12.8016594 C164.640853,12.8016594 163.977084,12.0154089 163.977084,11.1422363 C163.977084,10.2532596 164.660608,9.53022521 165.711576,9.53022521 C166.758593,9.53022521 167.402608,10.2769656 167.426314,11.1659423 C167.426314,12.039115 166.758593,12.8016594 165.691821,12.8016594 L165.691821,12.8016594 L165.691821,12.8016594 Z M178.694587,22.6791782 L175.13868,22.6791782 L175.13868,18.0762544 C175.13868,16.8553931 174.731727,16.0256815 173.621493,16.0256815 C172.775978,16.0256815 172.286053,16.5867246 172.064797,17.1280126 C171.981825,17.321612 171.977874,17.5902805 171.977874,17.8629 L171.977874,22.6791782 L168.919795,22.6791782 C168.919795,22.6791782 168.959305,14.3820624 168.919795,13.5918609 L171.977874,13.5918609 L171.977874,15.1446069 C172.372975,14.5282497 173.321217,13.647175 174.949032,13.647175 C176.967997,13.647175 178.694587,14.9391545 178.694587,17.7285658 L178.694587,22.6791782 L178.694587,22.6791782 L178.694587,22.6791782 Z" id="Linkedin"></path>
                        <path d="M248.001976,1 C239.716713,1 233,7.71671276 233,16.0019755 C233,24.2832872 239.716713,31 248.001976,31 C256.283287,31 263,24.2832872 263,16.0019755 C263,7.71671276 256.283287,1 248.001976,1 L248.001976,1 L248.001976,1 Z" id="Linkedin"></path>
                        <path d="M15.0019755,0.539 C6.71671276,0.539 0,7.25571276 0,15.5409755 C0,23.8222872 6.71671276,30.539 15.0019755,30.539 C23.2832872,30.539 30,23.8222872 30,15.5409755 C30,7.25571276 23.2832872,0.539 15.0019755,0.539 L15.0019755,0.539 L15.0019755,0.539 Z M22.2994864,21.8823426 C22.2994864,22.3248554 22.082181,22.7954204 21.6436191,22.7954204 L17.9533781,22.7954204 L17.9533781,17.2640099 L19.8301067,17.2640099 L20.1145792,14.8934054 L17.9533781,14.8934054 L17.9533781,13.4785496 C17.9533781,12.8463884 18.1232714,12.5228009 19.0320032,12.5228009 L20.3239826,12.5228009 L20.3239826,10.4560288 C19.9288819,10.4283718 19.3164757,10.3691067 18.5144212,10.3691067 C16.847096,10.3691067 15.5827736,11.3884666 15.5827736,13.2612442 L15.5827736,14.8934054 L13.6072699,14.8934054 L13.6072699,17.2640099 L15.5827736,17.2640099 L15.5827736,22.7954204 L8.73962861,22.7954204 C8.29711576,22.7954204 8.07585934,22.3248554 8.07585934,21.8823426 L8.07585934,8.97835203 C8.07585934,8.53583919 8.29711576,8.17669261 8.73962861,8.17669261 L21.6436191,8.17669261 C22.082181,8.17669261 22.2994864,8.53583919 22.2994864,8.97835203 L22.2994864,21.8823426 L22.2994864,21.8823426 L22.2994864,21.8823426 Z" id="Facebook"></path>
                    </g>
                    <g id="large-social" transform="translate(0.000000, 117.000000)">
                        <g id="Group-3" transform="translate(141.000000, 0.000000)">
                            <path d="M49.9552632,24.9776316 C49.9552632,38.7723684 38.7723684,49.9552632 24.9776316,49.9552632 C11.1828947,49.9552632 0,38.7723684 0,24.9776316 C0,11.1828947 11.1828947,0 24.9776316,0 C38.7723684,0 49.9552632,11.1828947 49.9552632,24.9776316" id="Twitter-Circle" fill="#24A9E6"></path>
                            <path d="M36.3151316,14.9513158 C35.3375,15.5447368 34.2572368,15.9763158 33.1026316,16.2072368 C32.1828947,15.2006579 30.8684211,14.5717105 29.4131579,14.5717105 C26.6236842,14.5717105 24.3598684,16.8927632 24.3598684,19.7552632 C24.3598684,20.1611842 24.4032895,20.5559211 24.4901316,20.9355263 C20.2888158,20.7190789 16.5644737,18.6578947 14.0697368,15.5177632 C13.6342105,16.2861842 13.3855263,17.1776316 13.3855263,18.1263158 C13.3855263,19.9243421 14.2776316,21.5111842 15.6348684,22.4407895 C14.8072368,22.4157895 14.0263158,22.1802632 13.3434211,21.7940789 L13.3434211,21.8578947 C13.3434211,24.3703947 15.0861842,26.4664474 17.4006579,26.9407895 C16.9769737,27.0625 16.5296053,27.1230263 16.0684211,27.1230263 C15.7427632,27.1230263 15.425,27.0921053 15.1171053,27.0315789 C15.7605263,29.0901316 17.6263158,30.5894737 19.8388158,30.6289474 C18.1092105,32.0203947 15.9282895,32.8493421 13.5605263,32.8493421 C13.1526316,32.8493421 12.7493421,32.8256579 12.3546053,32.7782895 C14.5914474,34.2467105 17.25,35.1052632 20.1039474,35.1052632 C29.4032895,35.1052632 34.4868421,27.2078947 34.4868421,20.3572368 C34.4868421,20.1315789 34.4828947,19.9065789 34.4743421,19.6855263 C35.4618421,18.9539474 36.3197368,18.0421053 36.9947368,17.0026316 C36.0894737,17.4144737 35.1144737,17.6934211 34.0921053,17.8184211 C35.1361842,17.1776316 35.9375,16.1611842 36.3151316,14.9513158" id="Twitter" fill="#FFFFFF"></path>
                        </g>
                        <path d="M25.0032925,0 C11.1945213,0 0,11.1945213 0,25.0032925 C0,38.8054787 11.1945213,50 25.0032925,50 C38.8054787,50 50,38.8054787 50,25.0032925 C50,11.1945213 38.8054787,0 25.0032925,0 L25.0032925,0 L25.0032925,0 Z M37.1658106,35.5722376 C37.1658106,36.309759 36.8036349,36.7904649 36.0726985,36.7904649 L29.9222969,36.7904649 L29.9222969,27.5714474 L33.0501778,27.5714474 L33.5242987,23.6204399 L29.9222969,23.6204399 L29.9222969,21.565916 C29.9222969,20.512314 30.2054524,19.6694324 31.7200053,19.6694324 L33.8733044,19.6694324 L33.8733044,16.5283814 C33.2148031,16.4822863 32.1941262,16.3835111 30.8573686,16.3835111 C28.0784933,16.3835111 25.9712893,18.0824444 25.9712893,21.2037403 L25.9712893,23.6204399 L22.6787831,23.6204399 L22.6787831,27.5714474 L25.9712893,27.5714474 L25.9712893,36.7904649 L14.5660477,36.7904649 C13.8285263,36.7904649 13.4597656,36.309759 13.4597656,35.5722376 L13.4597656,14.0655867 C13.4597656,13.3280653 13.8285263,12.4259186 14.5660477,12.4259186 L36.0726985,12.4259186 C36.8036349,12.4259186 37.1658106,13.3280653 37.1658106,14.0655867 L37.1658106,35.5722376 L37.1658106,35.5722376 L37.1658106,35.5722376 Z" id="Facebook" fill="#43619C"></path>
                        <g id="Group-2" transform="translate(271.000000, 0.000000)">
                            <path d="M49.9552632,24.9776316 C49.9552632,38.7723684 38.7723684,49.9552632 24.9776316,49.9552632 C11.1828947,49.9552632 0,38.7723684 0,24.9776316 C0,11.1828947 11.1828947,0 24.9776316,0 C38.7723684,0 49.9552632,11.1828947 49.9552632,24.9776316" id="Linkedin-Circle" fill="#187FB8"></path>
                            <path d="M13.8921053,21.2019737 L18.6223684,21.2019737 L18.6223684,36.1901316 L13.8921053,36.1901316 L13.8921053,21.2019737 L13.8921053,21.2019737 Z M31.5467105,21.0578947 C28.8368421,21.0578947 27.1388158,22.5256579 26.825,23.5546053 L26.825,21.2019737 L21.5111842,21.2019737 C21.5796053,22.4513158 21.5111842,36.1901316 21.5111842,36.1901316 L26.825,36.1901316 L26.825,28.0796053 C26.825,27.6289474 26.8039474,27.1782895 26.9407895,26.8546053 C27.3059211,25.9532895 28.0907895,25.0177632 29.5019737,25.0177632 C31.3473684,25.0177632 32.1861842,26.4039474 32.1861842,28.4342105 L32.1861842,36.1901316 L37.55,36.1901316 L37.55,27.8565789 C37.55,23.2138158 34.9085526,21.0578947 31.5467105,21.0578947 L31.5467105,21.0578947 Z M16.1697368,14.1269737 C14.4230263,14.1269737 13.2802632,15.2486842 13.2802632,16.7289474 C13.2802632,18.1815789 14.3907895,19.3269737 16.1026316,19.3269737 L16.1368421,19.3269737 C17.9151316,19.3269737 19.0223684,18.1769737 19.0223684,16.725 C18.9881579,15.2460526 17.9151316,14.1269737 16.1697368,14.1269737 L16.1697368,14.1269737 Z" id="Linkedin" fill="#FFFFFF"></path>
                        </g>
                        <path d="M455.003293,0 C441.194521,0 430,11.1945213 430,25.0032925 C430,38.8054787 441.194521,50 455.003293,50 C468.805479,50 480,38.8054787 480,25.0032925 C480,11.1945213 468.805479,0 455.003293,0 L455.003293,0 L455.003293,0 Z" id="Google+" fill="#44BBFF"></path>
                    </g>
                </g>
            </g>
            <g id="Capa_1" transform="translate(239.000000, 10.000000)" fill="#FFFFFF">
                <g id="Group">
                    <path d="M14.4184286,0.0145714286 C16.0512381,0.0574761905 16.8680476,0.984380952 16.8761429,2.79771429 C16.8761429,2.91671429 16.8720952,3.04057143 16.865619,3.16766667 C16.7935714,4.70495238 15.6497143,6.79919048 13.4291905,9.44957143 C11.1390476,12.2262381 9.19619048,13.6161905 7.60061905,13.6234762 C6.60814286,13.6234762 5.78404762,12.7734762 5.12266667,11.0726667 L4.42809524,8.7412381 L3.74161905,6.41304762 C3.23566667,4.726 2.69490476,3.88409524 2.11771429,3.88409524 C1.99142857,3.88409524 1.55347619,4.13019048 0.801428571,4.6207619 L0,3.67280952 L1.24342857,2.63985714 L2.46661905,1.61742857 C3.56190476,0.739904762 4.39490476,0.26552381 4.96642857,0.195095238 C5.04252381,0.187 5.11861905,0.184571429 5.19633333,0.184571429 C6.36933333,0.184571429 7.10195238,1.02728571 7.38933333,2.71352381 C7.54961905,3.6752381 7.68238095,4.4572381 7.79004762,5.05790476 C7.89447619,5.66019048 7.98190476,6.07952381 8.05152381,6.31833333 C8.43928571,7.91309524 8.857,8.71452381 9.30628571,8.721 C9.65114286,8.721 10.1821905,8.20128571 10.8994286,7.16185714 C11.6004762,6.09409524 11.9777143,5.30319048 12.0262857,4.78833333 C12.0416667,4.68390476 12.0473333,4.58595238 12.0473333,4.49528571 C12.0473333,3.79828571 11.663619,3.451 10.8994286,3.451 C10.5116667,3.451 10.098,3.53357143 9.65519048,3.69304762 C10.4485238,1.24747619 11.9736667,0.0226666667 14.229,0.0145714286 L14.4184286,0.0145714286 L14.4184286,0.0145714286 Z" id="Shape"></path>
                </g>
            </g>
            <g id="Capa_1" transform="translate(442.000000, 133.000000)" fill="#FFFFFF">
                <g id="Group">
                    <path d="M20.3554286,0.0205714286 C22.6605714,0.0811428571 23.8137143,1.38971429 23.8251429,3.94971429 C23.8251429,4.11771429 23.8194286,4.29257143 23.8102857,4.472 C23.7085714,6.64228571 22.0937143,9.59885714 18.9588571,13.3405714 C15.7257143,17.2605714 12.9828571,19.2228571 10.7302857,19.2331429 C9.32914286,19.2331429 8.16571429,18.0331429 7.232,15.632 L6.25142857,12.3405714 L5.28228571,9.05371429 C4.568,6.672 3.80457143,5.48342857 2.98971429,5.48342857 C2.81142857,5.48342857 2.19314286,5.83085714 1.13142857,6.52342857 L0,5.18514286 L1.75542857,3.72685714 L3.48228571,2.28342857 C5.02857143,1.04457143 6.20457143,0.374857143 7.01142857,0.275428571 C7.11885714,0.264 7.22628571,0.260571429 7.336,0.260571429 C8.992,0.260571429 10.0262857,1.45028571 10.432,3.83085714 C10.6582857,5.18857143 10.8457143,6.29257143 10.9977143,7.14057143 C11.1451429,7.99085714 11.2685714,8.58285714 11.3668571,8.92 C11.9142857,11.1714286 12.504,12.3028571 13.1382857,12.312 C13.6251429,12.312 14.3748571,11.5782857 15.3874286,10.1108571 C16.3771429,8.60342857 16.9097143,7.48685714 16.9782857,6.76 C17,6.61257143 17.008,6.47428571 17.008,6.34628571 C17.008,5.36228571 16.4662857,4.872 15.3874286,4.872 C14.84,4.872 14.256,4.98857143 13.6308571,5.21371429 C14.7508571,1.76114286 16.904,0.032 20.088,0.0205714286 L20.3554286,0.0205714286 L20.3554286,0.0205714286 Z" id="Shape"></path>
                </g>
            </g>
        </g>
    </g>
</svg>