<?xml version="1.0" encoding="UTF-8" standalone="no"?>
<svg width="205px" height="25px" viewBox="0 0 205 25" version="1.1" xmlns="http://www.w3.org/2000/svg" xmlns:xlink="http://www.w3.org/1999/xlink">
    <!-- Generator: Sketch 3.6.1 (26313) - http://www.bohemiancoding.com/sketch -->
    <title>accordian</title>
    <desc>Created with Sketch.</desc>
    <defs></defs>
    <g id="Page-1" stroke="none" stroke-width="1" fill="none" fill-rule="evenodd">
        <g id="accordian" transform="translate(-6.000000, -6.000000)">
            <g id="open" transform="translate(78.500000, 18.500000) rotate(135.000000) translate(-78.500000, -18.500000) translate(66.000000, 6.000000)">
                <circle id="Oval-137" fill="#FFFFFF" cx="12.1908077" cy="12.7712234" r="12"></circle>
                <path d="M11.2447615,12.9056526 L7.43107105,16.7193431 C7.19988057,16.9505336 7.19988057,17.3255336 7.43107105,17.5564859 C7.54678533,17.6719621 7.6982139,17.7298193 7.84964248,17.7298193 C8.00107105,17.7298193 8.15249962,17.6722002 8.2682139,17.5564859 L12.0819044,13.7427955 L15.8955949,17.5564859 C16.0113091,17.6719621 16.1627377,17.7298193 16.3141663,17.7298193 C16.4655949,17.7298193 16.6170234,17.6722002 16.7327377,17.5564859 C16.9639282,17.3252955 16.9639282,16.9502955 16.7327377,16.7193431 L12.9190472,12.9056526 L16.7327377,9.09196214 C16.9639282,8.86077166 16.9639282,8.48577166 16.7327377,8.25481928 C16.5013091,8.02362881 16.1267853,8.02362881 15.8955949,8.25481928 L12.0819044,12.0685098 L8.2682139,8.25481928 C8.03678533,8.02362881 7.66226152,8.02362881 7.43107105,8.25481928 C7.19988057,8.48600976 7.19988057,8.86100976 7.43107105,9.09196214 L11.2447615,12.9056526 Z" id="Shape" fill="#667789"></path>
            </g>
            <g id="open" transform="translate(148.500000, 18.500000) rotate(225.000000) translate(-148.500000, -18.500000) translate(136.000000, 6.000000)">
                <circle id="Oval-137" fill="#EEF6FB" cx="12.1908077" cy="12.7712234" r="12"></circle>
                <path d="M7.84964248,17.7298193 C7.6982139,17.7298193 7.54678533,17.6719621 7.43107105,17.5564859 C7.19988057,17.3255336 7.19988057,16.9505336 7.43107105,16.7193431 L15.8955949,8.25481928 C16.1267853,8.02362881 16.5013091,8.02362881 16.7327377,8.25481928 C16.9639282,8.48577166 16.9639282,8.86077166 16.7327377,9.09196214 L8.2682139,17.5564859 C8.15249962,17.6722002 8.00107105,17.7298193 7.84964248,17.7298193 L7.84964248,17.7298193 Z" id="Shape" fill="#667789"></path>
            </g>
            <g id="open" transform="translate(198.500000, 18.500000) rotate(135.000000) translate(-198.500000, -18.500000) translate(186.000000, 6.000000)">
                <circle id="Oval-137" fill="#EEF6FB" cx="12.1908077" cy="12.7712234" r="12"></circle>
                <path d="M11.2447615,12.9056526 L7.43107105,16.7193431 C7.19988057,16.9505336 7.19988057,17.3255336 7.43107105,17.5564859 C7.54678533,17.6719621 7.6982139,17.7298193 7.84964248,17.7298193 C8.00107105,17.7298193 8.15249962,17.6722002 8.2682139,17.5564859 L12.0819044,13.7427955 L15.8955949,17.5564859 C16.0113091,17.6719621 16.1627377,17.7298193 16.3141663,17.7298193 C16.4655949,17.7298193 16.6170234,17.6722002 16.7327377,17.5564859 C16.9639282,17.3252955 16.9639282,16.9502955 16.7327377,16.7193431 L12.9190472,12.9056526 L16.7327377,9.09196214 C16.9639282,8.86077166 16.9639282,8.48577166 16.7327377,8.25481928 C16.5013091,8.02362881 16.1267853,8.02362881 15.8955949,8.25481928 L12.0819044,12.0685098 L8.2682139,8.25481928 C8.03678533,8.02362881 7.66226152,8.02362881 7.43107105,8.25481928 C7.19988057,8.48600976 7.19988057,8.86100976 7.43107105,9.09196214 L11.2447615,12.9056526 Z" id="Shape" fill="#667789"></path>
            </g>
            <g id="open" transform="translate(18.500000, 18.500000) rotate(225.000000) translate(-18.500000, -18.500000) translate(6.000000, 6.000000)">
                <path d="M12.1908077,24.7712234 C18.8182247,24.7712234 24.1908077,19.3986404 24.1908077,12.7712234 C24.1908077,6.1438064 18.8182247,0.771223394 12.1908077,0.771223394 C5.5633907,0.771223394 0.190807702,6.1438064 0.190807702,12.7712234 C0.190807702,19.3986404 5.5633907,24.7712234 12.1908077,24.7712234 Z" id="Oval-137" fill="#FFFFFF"></path>
                <path d="M7.84964248,17.7298193 C7.6982139,17.7298193 7.54678533,17.6719621 7.43107105,17.5564859 C7.19988057,17.3255336 7.19988057,16.9505336 7.43107105,16.7193431 L15.8955949,8.25481928 C16.1267853,8.02362881 16.5013091,8.02362881 16.7327377,8.25481928 C16.9639282,8.48577166 16.9639282,8.86077166 16.7327377,9.09196214 L8.2682139,17.5564859 C8.15249962,17.6722002 8.00107105,17.7298193 7.84964248,17.7298193 L7.84964248,17.7298193 Z" id="Shape" fill="#667789"></path>
            </g>
        </g>
    </g>
</svg>