<?xml version="1.0" encoding="UTF-8" standalone="no"?>
<svg width="505px" height="50px" viewBox="0 0 505 50" version="1.1" xmlns="http://www.w3.org/2000/svg" xmlns:xlink="http://www.w3.org/1999/xlink">
    <!-- Generator: Sketch 3.6.1 (26313) - http://www.bohemiancoding.com/sketch -->
    <title>logos all</title>
    <desc>Created with Sketch.</desc>
    <defs></defs>
    <g id="Page-1" stroke="none" stroke-width="1" fill="none" fill-rule="evenodd">
        <g id="logos-all">
            <g id="tm3-blue" transform="translate(308.000000, 0.000000)">
                <g id="Layer_1">
                    <path d="M34.194813,49.4570833 L19.8092605,49.4570833 L19.8092605,12.1933333 L0.108432773,12.1933333 L0.108432773,7.12708333 C0.108432773,5.07708333 0.751165966,3.37958333 2.03539076,2.03333333 C3.25877731,0.750833333 4.63529412,0.11125 6.16535504,0.11125 L53.894813,0.11125 L53.894813,5.17666667 L53.8873634,5.55916667 L53.8873634,8.55125 C53.8873634,10.5645833 52.3299874,12.1966667 50.4075819,12.1966667 L46.6385084,12.1966667 L40.0100378,12.1929167 L34.194813,12.1929167 L34.194813,49.4570833 L34.194813,49.4570833 Z" id="Shape" fill="#16B9FF"></path>
                    <path d="M65.2330735,49.4570833 L61.464,49.4570833 C59.5415945,49.4570833 57.9833908,47.8258333 57.9833908,45.8125 L57.9833908,3.75583333 C57.9833908,1.7425 59.5415945,0.111666667 61.464,0.111666667 L65.2330735,0.111666667 L71.8901008,0.111666667 L79.2386975,0.111666667 L96.0246702,30.9275 L113.130975,0.111666667 L130.584099,0.111666667 C132.505676,0.111666667 134.06388,1.7425 134.06388,3.75583333 L134.06388,41.0754167 L134.062639,43.1141667 L134.06388,45.8129167 C134.06388,47.82625 132.505263,49.4575 130.584099,49.4575 L126.814197,49.4575 L120.166689,49.4575 L120.066947,41.9033333 L120.066947,35.8116667 L120.064878,28.82375 L120.066947,20.7445833 L120.066947,14.415 L100.689349,49.4575 L91.2937731,49.4575 L71.9811513,14.29875 L71.9811513,49.4575 L65.2330735,49.4575 L65.2330735,49.4570833 Z" id="Shape" fill="#16B9FF"></path>
                    <path d="M144.619521,47.58 L153.518044,32.0625 L142.278284,32.0625 C140.780504,32.0625 139.565395,33.2858333 139.565395,34.7941667 L139.565395,37.2425 C139.565395,42.5125 141.528773,45.7154167 144.619521,47.58" id="Shape" fill="#556270"></path>
                    <path d="M187.805149,25 L187.805149,24.7983333 C194.419548,22.7804167 195.822966,21.77125 195.822966,13.565 C195.822966,2.80208333 191.746391,0.11125 174.508891,0.11125 L164.553355,0.11125 C146.380519,0.11125 140.032649,1.52416667 140.032649,14.64125 C140.032649,16.1270833 141.229134,17.3316667 142.704979,17.3316667 L154.063519,17.3316667 L154.063519,15.24625 C154.063519,11.6141667 155.533155,10.605 160.344342,10.605 L175.044019,10.605 C179.453342,10.605 181.791683,11.5466667 181.791683,15.31375 C181.791683,18.8116667 180.922979,20.0225 176.11262,20.0225 L162.282061,20.0225 L162.282061,30.1125 L177.515624,30.1125 C182.05904,30.1125 182.861111,31.5925 182.861111,34.8204167 C182.861111,38.1170833 182.326811,39.395 177.716349,39.395 L160.010353,39.395 C156.004548,39.395 154.354053,38.735 153.816441,36.51 L146.859775,48.64125 C149.359109,49.5541667 152.3228,49.88875 155.466937,49.88875 L180.121321,49.88875 C193.550845,49.88875 196.891567,46.1891667 196.891567,36.57 C196.891567,28.8341667 195.621828,26.3454167 187.805149,25" id="Shape" fill="#16B9FF"></path>
                </g>
            </g>
            <g id="main-nav" transform="translate(0.000000, 1.000000)" fill="#FFFFFF">
                <g id="tm3-white">
                    <g id="Layer_1">
                        <path d="M33.5672983,48.359325 L19.4008151,48.359325 L19.4008151,11.8404417 L0,11.8404417 L0,6.875925 C0,4.866925 0.632945378,3.203375 1.89761345,1.88405 C3.10236975,0.6272 4.45792437,0.000408333333 5.96468487,0.000408333333 L52.9672983,0.000408333333 L52.9672983,4.96451667 L52.9599622,5.33936667 L52.9599622,8.27160833 C52.9599622,10.244675 51.4263025,11.8441167 49.5331723,11.8441167 L45.8214958,11.8441167 L39.2939664,11.8404417 L33.5672983,11.8404417 L33.5672983,48.359325 L33.5672983,48.359325 Z" id="Shape"></path>
                        <path d="M64.132895,48.359325 L60.4212185,48.359325 C58.5280882,48.359325 56.9936134,46.7602917 56.9936134,44.787225 L56.9936134,3.57169167 C56.9936134,1.598625 58.5280882,0.000408333333 60.4212185,0.000408333333 L64.132895,0.000408333333 L70.6885462,0.000408333333 L77.9252353,0.000408333333 L94.455584,30.199925 L111.301387,0.000408333333 L128.489134,0.000408333333 C130.381042,0.000408333333 131.915924,1.598625 131.915924,3.57169167 L131.915924,40.144475 L131.914294,42.1428583 L131.915924,44.787225 C131.915924,46.7602917 130.380634,48.359325 128.489134,48.359325 L124.776643,48.359325 L118.230366,48.359325 L118.131735,40.9562417 L118.131735,34.9864083 L118.130105,28.13825 L118.131735,20.21985 L118.131735,14.017675 L99.0492269,48.359325 L89.7971387,48.359325 L70.7778025,13.90375 L70.7778025,48.359325 L64.132895,48.359325 L64.132895,48.359325 Z" id="Shape"></path>
                        <path d="M142.310004,46.519375 L151.073424,31.3130417 L140.004828,31.3130417 C138.52945,31.3130417 137.333252,32.5115 137.333252,33.9896667 L137.333252,36.3890333 C137.333252,41.5536333 139.266731,44.6920833 142.310004,46.519375" id="Shape"></path>
                        <path d="M184.837983,24.390975 L184.837983,24.1933417 C191.352063,22.2157833 192.733702,21.2268 192.733702,13.184675 C192.733702,2.63701667 188.719613,0 171.744206,0 L161.940685,0 C144.044185,0 137.792983,1.38506667 137.792983,14.2394 C137.792983,15.6955167 138.971655,16.8760083 140.425025,16.8760083 L151.610592,16.8760083 L151.610592,14.8323 C151.610592,11.2728583 153.057849,10.283875 157.795769,10.283875 L172.271185,10.283875 C176.613769,10.283875 178.916092,11.2067083 178.916092,14.89845 C178.916092,18.3268167 178.060618,19.513025 173.323513,19.513025 L159.703571,19.513025 L159.703571,29.401225 L174.705151,29.401225 C179.179786,29.401225 179.969235,30.8520333 179.969235,34.0158 C179.969235,37.246125 179.443071,38.4984833 174.902819,38.4984833 L157.466458,38.4984833 C153.522063,38.4984833 151.896702,37.8516833 151.367277,35.6711833 L144.516143,47.5598083 C146.977824,48.4544667 149.895975,48.7823583 152.992231,48.7823583 L177.271168,48.7823583 C190.496181,48.7823583 193.786029,45.1563583 193.786029,35.729575 C193.786029,28.1488667 192.536034,25.7094833 184.837983,24.390975" id="Shape"></path>
                    </g>
                </g>
            </g>
        </g>
    </g>
</svg>