<svg id="icon_improvedtasks" xmlns="http://www.w3.org/2000/svg" width="81" height="90" viewBox="0 0 81 90">
  <defs>
    <style>
      .cls-1 {
        fill: #3295d8;
      }
    </style>
  </defs>
  <path id="Path_5737" data-name="Path 5737" class="cls-1" d="M63.886,27.477V71.684H60.726V27.477ZM46.275,81.827H6.018A6.012,6.012,0,0,1,0,75.834V5.993A6.012,6.012,0,0,1,6.018,0H67.285V3.158H6.018A2.855,2.855,0,0,0,4.005,4a2.823,2.823,0,0,0-.833,1.994V75.834A2.877,2.877,0,0,0,6.029,78.68H46.286v3.148Z"/>
  <path id="Path_5738" data-name="Path 5738" class="cls-1" d="M56.11,27.971V6.018A6.024,6.024,0,0,1,62.128,0h8.746V3.172H62.128a2.883,2.883,0,0,0-2.858,2.858V27.971Z" transform="translate(4.626)"/>
  <path id="Path_5739" data-name="Path 5739" class="cls-1" d="M70.217,0a6.024,6.024,0,0,1,6.018,6.018V23.976a6.043,6.043,0,0,1-1.764,4.254l-.011.011a6,6,0,0,1-4.254,1.764H57.79V26.834H70.206A2.886,2.886,0,0,0,72.219,26a2.84,2.84,0,0,0,.833-2.013V6.018a2.886,2.886,0,0,0-.833-2.013,2.84,2.84,0,0,0-2.013-.833V0Z" transform="translate(4.765)"/>
  <path id="Path_5740" data-name="Path 5740" class="cls-1" d="M26.56,40.99H51.37v3.172H26.56Z" transform="translate(2.19 3.206)"/>
  <path id="Path_5741" data-name="Path 5741" class="cls-1" d="M11.05,9.02H24.43V23.98H9.47V9.02Zm10.208,3.172H12.642v8.616h8.616V12.192Z" transform="translate(0.781 0.744)"/>
  <path id="Path_5742" data-name="Path 5742" class="cls-1" d="M11.05,30.1H24.43V45.06H9.47V30.1Zm10.208,3.172H12.642V41.9h8.616V33.272Z" transform="translate(0.781 2.334)"/>
  <path id="Path_5743" data-name="Path 5743" class="cls-1" d="M11.05,51.19H24.43V66.15H9.47V51.19Zm10.208,3.172H12.642v8.616h8.616V54.362Z" transform="translate(0.781 3.97)"/>
  <path id="Path_5744" data-name="Path 5744" class="cls-1" d="M43.35,86.217a144.856,144.856,0,0,1-3.345-17.969A61.842,61.842,0,0,1,39.5,56.937c.281-3.713,1.342-6.311,3.583-6.83a3.682,3.682,0,0,1,.79-.087c2.392.011,3.626,2.717,5.163,6.083,1.992,4.373,4.644,10.2,10.024,10.2a1.58,1.58,0,1,1,0,3.161c-7.4,0-10.543-6.884-12.9-12.059-1.072-2.349-1.927-4.232-2.306-4.243l-.065.011c-.606.141-.963,1.689-1.137,3.983a59.418,59.418,0,0,0,.5,10.705A133.694,133.694,0,0,0,46.619,86.2H43.35Z" transform="translate(3.249 3.783)"/>
  <path id="Path_5745" data-name="Path 5745" class="cls-1" d="M57.3,33.318a1.583,1.583,0,0,1,.758-3.074,13.959,13.959,0,0,1,2.479.866l.108.054c6.96,3.312,10.316,12.243,11.4,22.374a89.449,89.449,0,0,1-1.981,28.869A49.227,49.227,0,0,1,68.4,87.852H64.976A39.233,39.233,0,0,0,67,81.66a85.885,85.885,0,0,0,1.905-27.776c-.974-9.147-3.821-17.124-9.623-19.863l-.065-.032a11.514,11.514,0,0,0-1.916-.671Z" transform="translate(4.626 2.148)"/>
  <path id="Path_5746" data-name="Path 5746" class="cls-1" d="M26.53,38.07H51.372V44.4H26.53Z" transform="translate(2.187 2.971)"/>
  <path id="Path_5747" data-name="Path 5747" class="cls-1" d="M26.56,16.98H51.413v6.343H26.56Z" transform="translate(2.19 1.325)"/>
  <path id="Path_5748" data-name="Path 5748" class="cls-1" d="M26.56,59.15H41.736v6.343H26.56Z" transform="translate(2.19 4.617)"/>
</svg>
