<svg id="icon_multi-tab" xmlns="http://www.w3.org/2000/svg" width="90" height="80" viewBox="0 0 90 80">
  <defs>
    <style>
      .cls-1, .cls-2 {
        fill: #3295d8;
      }

      .cls-2 {
        fill-rule: evenodd;
      }
    </style>
  </defs>
  <path id="Path_5711" data-name="Path 5711" class="cls-1" d="M5.57,0H75.06a5.594,5.594,0,0,1,5.57,5.608V11.1H77.695V5.608a2.664,2.664,0,0,0-.781-1.876,2.628,2.628,0,0,0-1.863-.787H5.57a2.628,2.628,0,0,0-1.863.787,2.7,2.7,0,0,0-.771,1.876V65.021A2.664,2.664,0,0,0,3.716,66.9a2.628,2.628,0,0,0,1.863.787h5.439V70.64H5.57A5.573,5.573,0,0,1,1.633,69,5.675,5.675,0,0,1,0,65.021V5.608A5.651,5.651,0,0,1,1.633,1.644,5.573,5.573,0,0,1,5.57,0Z"/>
  <path id="Path_5712" data-name="Path 5712" class="cls-1" d="M15.64,22.16H83.59v5.86H15.64Z" transform="translate(0.14 0.184)"/>
  <path id="Path_5713" data-name="Path 5713" class="cls-1" d="M14.94,9.37H84.43A5.594,5.594,0,0,1,90,14.978V74.392a5.651,5.651,0,0,1-1.633,3.964A5.531,5.531,0,0,1,84.43,80H14.94a5.611,5.611,0,0,1-5.58-5.608V14.978A5.7,5.7,0,0,1,11,11.014,5.573,5.573,0,0,1,14.94,9.37ZM84.43,12.326H14.94a2.628,2.628,0,0,0-1.863.787,2.664,2.664,0,0,0-.781,1.876V74.4a2.664,2.664,0,0,0,.781,1.876,2.628,2.628,0,0,0,1.863.787H84.43a2.643,2.643,0,0,0,2.635-2.653V15a2.664,2.664,0,0,0-.781-1.876,2.556,2.556,0,0,0-1.853-.8Z"/>
  <path id="Path_5714" data-name="Path 5714" class="cls-2" d="M15.64,16.48h3.99v3.99H15.64Z" transform="translate(0.025 0.133)"/>
  <path id="Path_5715" data-name="Path 5715" class="cls-2" d="M22.67,16.48h3.99v3.99H22.67Z" transform="translate(0.037 0.133)"/>
  <path id="Path_5716" data-name="Path 5716" class="cls-2" d="M29.7,16.48h3.99v3.99H29.7Z" transform="translate(0.048 0.133)"/>
</svg>
