<svg id="icon_livechatsupport" xmlns="http://www.w3.org/2000/svg" width="95" height="84" viewBox="0 0 95 84">
  <defs>
    <style>
      .cls-1 {
        fill: #3295d8;
      }
    </style>
  </defs>
  <path id="Path_5764" data-name="Path 5764" class="cls-1" d="M10.72,30.41H35.4v2.92H10.72Z" transform="translate(0 -0.181)"/>
  <path id="Path_5765" data-name="Path 5765" class="cls-1" d="M10.72,39.78H53.68V42.7H10.72Z" transform="translate(0 -0.236)"/>
  <path id="Path_5766" data-name="Path 5766" class="cls-1" d="M89.43,2.93H32.5a2.632,2.632,0,0,0-1.86.78l-.06.06a2.638,2.638,0,0,0-.71,1.8v12.3H26.94V5.56a5.542,5.542,0,0,1,1.55-3.84l.09-.09A5.541,5.541,0,0,1,32.5,0H89.43A5.582,5.582,0,0,1,95,5.56V43.93a5.565,5.565,0,0,1-5.56,5.56H78.88V66.62h-.01a1.46,1.46,0,0,1-2.58.93l-9.6-11.51V51.48l9.25,11.1V48.03a1.462,1.462,0,0,1,1.46-1.46H89.42a2.629,2.629,0,0,0,2.63-2.63V5.56a2.632,2.632,0,0,0-.78-1.86,2.583,2.583,0,0,0-1.84-.77Z"/>
  <path id="Path_5767" data-name="Path 5767" class="cls-1" d="M5.56,16.4H62.49a5.565,5.565,0,0,1,5.56,5.56V60.33a5.583,5.583,0,0,1-1.63,3.93l-.09.09a5.524,5.524,0,0,1-3.84,1.55H33.75L18.7,83.96a1.46,1.46,0,0,1-2.58-.93h-.01V65.89H5.56a5.583,5.583,0,0,1-3.93-1.63l-.01-.01A5.575,5.575,0,0,1,0,60.33V21.96A5.565,5.565,0,0,1,5.56,16.4Zm56.93,2.93H5.56a2.663,2.663,0,0,0-2.64,2.64V60.34a2.666,2.666,0,0,0,.77,1.86,2.623,2.623,0,0,0,1.86.77H17.57a1.462,1.462,0,0,1,1.46,1.46V78.99L31.87,63.6a1.464,1.464,0,0,1,1.2-.63H62.49a2.638,2.638,0,0,0,1.8-.71l.06-.06a2.632,2.632,0,0,0,.78-1.86V21.96a2.646,2.646,0,0,0-2.64-2.63Z" transform="translate(0 -0.485)"/>
  <path id="Path_5768" data-name="Path 5768" class="cls-1" d="M10.72,49.14H53.75V55H10.72Z" transform="translate(0 -0.303)"/>
</svg>
